<?xml version="1.0" encoding="UTF-8" standalone="no"?>
<!-- Created with Inkscape (http://www.inkscape.org/) -->

<svg
   width="240mm"
   height="120mm"
   viewBox="0 0 240 120"
   version="1.1"
   id="svg8"
   inkscape:version="1.3.2 (091e20ef0f, 2023-11-25, custom)"
   sodipodi:docname="weird_intersection.svg"
   inkscape:export-filename="weird_intersection.pdf"
   inkscape:export-xdpi="96"
   inkscape:export-ydpi="96"
   xmlns:inkscape="http://www.inkscape.org/namespaces/inkscape"
   xmlns:sodipodi="http://sodipodi.sourceforge.net/DTD/sodipodi-0.dtd"
   xmlns="http://www.w3.org/2000/svg"
   xmlns:svg="http://www.w3.org/2000/svg"
   xmlns:rdf="http://www.w3.org/1999/02/22-rdf-syntax-ns#"
   xmlns:cc="http://creativecommons.org/ns#"
   xmlns:dc="http://purl.org/dc/elements/1.1/">
  <defs
     id="defs2">
    <inkscape:path-effect
       effect="bspline"
       id="path-effect9"
       is_visible="true"
       lpeversion="1.3"
       weight="33.333333"
       steps="2"
       helper_size="0"
       apply_no_weight="true"
       apply_with_weight="true"
       only_selected="false"
       uniform="false" />
    <marker
       id="marker-arrow-1.5923999999999998"
       orient="auto-start-reverse"
       refY="0"
       refX="0"
       markerHeight="1.690"
       markerWidth="0.911">
      <g
         transform="scale(1.0733986435568954)"
         id="g1">
        <path
           d="M -1.55415,2.0722 C -1.42464,1.29512 0,0.1295 0.38852,0 0,-0.1295 -1.42464,-1.29512 -1.55415,-2.0722"
           style="fill:none;stroke:#000000;stroke-width:0.6;stroke-linecap:round;stroke-linejoin:round;stroke-miterlimit:10;stroke-dasharray:none;stroke-opacity:1"
           inkscape:connector-curvature="0"
           id="path1-3" />
      </g>
    </marker>
  </defs>
  <sodipodi:namedview
     id="base"
     pagecolor="#ffffff"
     bordercolor="#666666"
     borderopacity="1.0"
     inkscape:pageopacity="0.0"
     inkscape:pageshadow="2"
     inkscape:zoom="0.99437388"
     inkscape:cx="236.32962"
     inkscape:cy="236.32962"
     inkscape:document-units="mm"
     inkscape:current-layer="layer1"
     showgrid="false"
     showborder="true"
     width="200mm"
     showguides="true"
     inkscape:guide-bbox="true"
     inkscape:window-width="2520"
     inkscape:window-height="995"
     inkscape:window-x="20"
     inkscape:window-y="65"
     inkscape:window-maximized="1"
     inkscape:showpageshadow="2"
     inkscape:pagecheckerboard="0"
     inkscape:deskcolor="#d1d1d1">
    <inkscape:grid
       type="xygrid"
       id="grid815"
       units="mm"
       spacingx="10"
       spacingy="10"
       empspacing="4"
       dotted="false"
       originx="0"
       originy="0"
       visible="false" />
  </sodipodi:namedview>
  <metadata
     id="metadata5">
    <rdf:RDF>
      <cc:Work
         rdf:about="">
        <dc:format>image/svg+xml</dc:format>
        <dc:type
           rdf:resource="http://purl.org/dc/dcmitype/StillImage" />
        <dc:title />
      </cc:Work>
    </rdf:RDF>
  </metadata>
  <g
     inkscape:label="Layer 1"
     inkscape:groupmode="layer"
     id="layer1"
     transform="translate(0,-177)">
    <ellipse
       style="fill:none;stroke:#000000;stroke-width:0.421322"
       id="path1"
       cx="52.884361"
       cy="235.39293"
       rx="29.726728"
       ry="23.363333" />
    <ellipse
       style="fill:none;stroke:#000000;stroke-width:0.421322"
       id="path2"
       cx="94.315331"
       cy="235.91217"
       rx="31.682049"
       ry="24.571028" />
    <ellipse
       style="fill:none;stroke:#000000;stroke-width:0.380769"
       id="path3"
       cx="53.05827"
       cy="235.31841"
       rx="24.737543"
       ry="18.591806" />
    <ellipse
       style="fill:none;stroke:#000000;stroke-width:0.40021"
       id="path4"
       cx="94.354813"
       cy="236.0311"
       rx="26.245304"
       ry="21.724905" />
    <ellipse
       style="fill:none;fill-opacity:1;stroke:#000000;stroke-width:0.28571;stroke-dasharray:1.07141, 1.07141;stroke-opacity:1;marker-start:none;marker-end:none"
       id="path5"
       cx="51.782837"
       cy="233.86244"
       rx="33.703701"
       ry="30.355373" />
    <ellipse
       style="fill:none;fill-opacity:1;stroke:#000000;stroke-width:0.280882;stroke-dasharray:1.05331, 1.05331;stroke-opacity:1;marker-start:none;marker-end:none"
       id="path6"
       cx="96.371468"
       cy="235.2133"
       rx="37.23505"
       ry="33.387493" />
    <text
       style="font-size:2.64583px;font-family:monospace;-inkscape-font-specification:'monospace, Normal';fill:#000000;fill-opacity:1;stroke:none;stroke-width:0.264583"
       xml:space="preserve"
       id="text1"
       y="210.78224"
       x="48.608917"><tspan
         sodipodi:role="line"
         id="tspan1"
         x="48.608917"
         y="210.78224"
         style="stroke-width:0.264583">$A$</tspan></text>
    <text
       style="font-size:2.64583px;font-family:monospace;-inkscape-font-specification:'monospace, Normal';fill:#000000;fill-opacity:1;stroke:none;stroke-width:0.264583"
       xml:space="preserve"
       id="text1-3"
       y="209.64224"
       x="92.084557"><tspan
         sodipodi:role="line"
         id="tspan1-6"
         x="92.084557"
         y="209.64224"
         style="stroke-width:0.264583">$B$</tspan></text>
    <text
       style="font-size:2.64583px;font-family:monospace;-inkscape-font-specification:'monospace, Normal';fill:#000000;fill-opacity:1;stroke:none;stroke-width:0.264583"
       xml:space="preserve"
       id="text1-7"
       y="223.49181"
       x="49.287651"><tspan
         sodipodi:role="line"
         id="tspan1-5"
         x="49.287651"
         y="223.49181"
         style="stroke-width:0.264583">$F_\varepsilon$</tspan></text>
    <text
       style="font-size:2.64583px;font-family:monospace;-inkscape-font-specification:'monospace, Normal';fill:#000000;fill-opacity:1;stroke:none;stroke-width:0.264583"
       xml:space="preserve"
       id="text1-35"
       y="210.75552"
       x="21.221661"><tspan
         sodipodi:role="line"
         id="tspan1-62"
         x="21.221661"
         y="210.75552"
         style="stroke-width:0.264583">$G_\varepsilon$</tspan></text>
    <text
       style="font-size:2.64583px;font-family:monospace;-inkscape-font-specification:'monospace, Normal';fill:#000000;fill-opacity:1;stroke:none;stroke-width:0.264583"
       xml:space="preserve"
       id="text1-9"
       y="201.48293"
       x="110.05381"><tspan
         sodipodi:role="line"
         id="tspan1-1"
         x="110.05381"
         y="201.48293"
         style="stroke-width:0.264583">$G_\varepsilon'$</tspan></text>
    <text
       style="font-size:2.64583px;font-family:monospace;-inkscape-font-specification:'monospace, Normal';fill:#000000;fill-opacity:1;stroke:none;stroke-width:0.264583"
       xml:space="preserve"
       id="text1-2"
       y="222.72408"
       x="89.061554"><tspan
         sodipodi:role="line"
         id="tspan1-7"
         x="89.061554"
         y="222.72408"
         style="stroke-width:0.264583">$F_\varepsilon'$</tspan></text>
    <path
       id="ellipse9"
       style="fill:black;stroke:none;stroke-width:0.14044083;fill-opacity:0.12;marker-end:none;marker-start:none;stroke-dasharray:none;stroke-opacity:1"
       d="M 51.782886 203.50691 A 33.703701 30.355373 0 0 0 18.079 233.86268 A 33.703701 30.355373 0 0 0 51.782886 264.21793 A 33.703701 30.355373 0 0 0 85.486772 233.86268 A 33.703701 30.355373 0 0 0 51.782886 203.50691 z M 53.05826 216.72677 A 24.737543 18.591806 0 0 1 77.795768 235.3184 A 24.737543 18.591806 0 0 1 53.05826 253.91003 A 24.737543 18.591806 0 0 1 28.320752 235.3184 A 24.737543 18.591806 0 0 1 53.05826 216.72677 z " />
    <path
       id="ellipse10"
       style="fill:black;stroke:black;stroke-width:0.14044083;fill-opacity:0.12;marker-end:none;marker-start:none;stroke-dasharray:none;stroke-opacity:1"
       d="M 96.371379 201.82587 A 37.23505 33.387493 0 0 0 59.136442 235.2135 A 37.23505 33.387493 0 0 0 96.371379 268.60061 A 37.23505 33.387493 0 0 0 133.60632 235.2135 A 37.23505 33.387493 0 0 0 96.371379 201.82587 z M 94.354964 214.30625 A 26.245304 21.724905 0 0 1 120.59987 236.03102 A 26.245304 21.724905 0 0 1 94.354964 257.75579 A 26.245304 21.724905 0 0 1 68.109538 236.03102 A 26.245304 21.724905 0 0 1 94.354964 214.30625 z " />
    <path
       id="ellipse6"
       style="fill:#abab38;fill-opacity:0.63436437;stroke:none;stroke-width:0.28088167;stroke-dasharray:none;stroke-opacity:1;marker-start:none;marker-end:none"
       d="M 72.288094 209.77939 A 37.23505 33.387493 0 0 0 59.136442 235.2135 A 37.23505 33.387493 0 0 0 70.470117 259.08491 A 33.703701 30.355373 0 0 0 85.486772 233.86268 A 33.703701 30.355373 0 0 0 72.288094 209.77939 z M 72.600736 223.92633 A 24.737543 18.591806 0 0 1 77.795768 235.3184 A 24.737543 18.591806 0 0 1 71.942896 247.27168 A 26.245304 21.724905 0 0 1 68.109538 236.03102 A 26.245304 21.724905 0 0 1 72.600736 223.92633 z " />
  </g>
</svg>
